<svg width="92" height="92" viewBox="0 0 92 92" fill="none" xmlns="http://www.w3.org/2000/svg">
<path d="M18.9134 45.7125C18.9134 50.8259 20.3509 55.8161 23.0616 60.108L23.6982 61.1348L20.967 71.1152L31.2143 68.425L32.2 69.0205C36.3482 71.4848 41.1125 72.7991 45.9795 72.7991H46C60.9089 72.7991 73.3741 60.6625 73.3741 45.733C73.3741 38.5045 70.2527 31.7071 65.1393 26.5938C60.0054 21.4598 53.2286 18.6464 46 18.6464C31.0705 18.6464 18.9339 30.783 18.9134 45.7125ZM56.4321 61.1964C53.8446 61.5866 51.8321 61.3813 46.6777 59.1634C39.1205 55.8982 33.9866 48.5875 32.9393 47.1089C32.8571 46.9857 32.7955 46.9241 32.775 46.883C32.3643 46.3491 29.4482 42.4679 29.4482 38.4634C29.4482 34.6848 31.2964 32.7339 32.1589 31.8304C32.2205 31.7688 32.2616 31.7277 32.3027 31.6661C33.042 30.8446 33.925 30.6393 34.4795 30.6393C35.0134 30.6393 35.5679 30.6393 36.0402 30.6598H36.2045C36.6768 30.6598 37.2723 30.6598 37.8679 32.0563C38.1143 32.6518 38.4839 33.5554 38.8741 34.4795C39.5518 36.1223 40.25 37.8268 40.3732 38.0938C40.5786 38.5045 40.7223 38.9768 40.4348 39.5107C39.7366 40.9071 39.0179 41.6464 38.525 42.1804C37.8884 42.8375 37.6009 43.1455 38.0527 43.9464C41.1946 49.3473 44.3366 51.2161 49.1214 53.6188C49.9429 54.0295 50.4152 53.9679 50.8875 53.4134C51.3598 52.8795 52.9205 51.0313 53.4545 50.2304C53.9884 49.4089 54.5429 49.5527 55.2821 49.8196C56.0214 50.0866 60.0259 52.058 60.8473 52.4688C61.0116 52.5509 61.1554 52.6125 61.2786 52.6741C61.8536 52.9616 62.2438 53.1464 62.408 53.4134C62.5929 53.8036 62.5929 55.4464 61.9152 57.3357C61.2375 59.2455 57.9929 60.9705 56.4321 61.1964ZM92 13.1429C92 5.89375 86.1063 0 78.8571 0H13.1429C5.89375 0 0 5.89375 0 13.1429V78.8571C0 86.1063 5.89375 92 13.1429 92H78.8571C86.1063 92 92 86.1063 92 78.8571V13.1429ZM30.4134 74.3187L13.1429 78.8571L17.7634 61.9768C14.9089 57.0482 13.4098 51.442 13.4098 45.692C13.4304 27.7437 28.0312 13.1429 45.9795 13.1429C54.6866 13.1429 62.8598 16.5312 69.0205 22.692C75.1607 28.8527 78.8571 37.0259 78.8571 45.733C78.8571 63.6813 63.9277 78.2822 45.9795 78.2822C40.517 78.2822 35.1571 76.9062 30.4134 74.3187Z" fill="#F49A13"/>
</svg>
