<svg width="92" height="92" viewBox="0 0 92 92" fill="none" xmlns="http://www.w3.org/2000/svg">
<path d="M81.7778 0H10.2222C4.6 0 0 4.6 0 10.2222V81.7778C0 87.4051 4.6 92 10.2222 92H81.7778C87.4 92 92 87.4051 92 81.7778V10.2222C92 4.6 87.4 0 81.7778 0ZM45.9182 74.2287C53.4253 74.226 60.6241 71.2422 65.9319 65.9334C71.2398 60.6246 74.2222 53.4253 74.2236 45.9182C74.2236 44.1907 74.0038 42.5244 73.6971 40.8889H81.7778V77.7707C81.7778 78.2351 81.6861 78.6949 81.5079 79.1238C81.3297 79.5527 81.0685 79.9422 80.7394 80.2698C80.4103 80.5975 80.0197 80.857 79.5901 81.0333C79.1604 81.2096 78.7002 81.2994 78.2358 81.2973H13.7642C13.2998 81.2994 12.8396 81.2096 12.4099 81.0333C11.9803 80.857 11.5897 80.5975 11.2606 80.2698C10.9315 79.9422 10.6703 79.5527 10.4921 79.1238C10.3139 78.6949 10.2222 78.2351 10.2222 77.7707V40.8889H18.1393C17.8276 42.5244 17.6078 44.1907 17.6078 45.9182C17.6091 53.4262 20.5923 60.6263 25.9012 65.9352C31.2102 71.2442 38.4102 74.2273 45.9182 74.2287ZM28.2287 45.9182C28.2287 43.5952 28.6862 41.2949 29.5752 39.1487C30.4642 37.0025 31.7672 35.0524 33.4098 33.4098C35.0524 31.7672 37.0025 30.4642 39.1487 29.5752C41.2949 28.6862 43.5952 28.2287 45.9182 28.2287C48.2412 28.2287 50.5415 28.6862 52.6877 29.5752C54.8339 30.4642 56.784 31.7672 58.4266 33.4098C60.0693 35.0524 61.3723 37.0025 62.2612 39.1487C63.1502 41.2949 63.6078 43.5952 63.6078 45.9182C63.6078 50.6098 61.7441 55.1092 58.4266 58.4266C55.1092 61.7441 50.6098 63.6078 45.9182 63.6078C41.2267 63.6078 36.7273 61.7441 33.4098 58.4266C30.0924 55.1092 28.2287 50.6098 28.2287 45.9182ZM78.2358 25.5556H69.9813C69.0441 25.5529 68.1461 25.1794 67.4834 24.5166C66.8206 23.8539 66.4471 22.9559 66.4444 22.0187V13.754C66.4444 11.8016 68.0289 10.2222 69.9762 10.2222H78.2307C80.1933 10.2222 81.7778 11.8016 81.7778 13.754V22.0136C81.7778 23.9609 80.1933 25.5556 78.2358 25.5556Z" fill="#F49A13"/>
</svg>
