<svg width="92" height="92" viewBox="0 0 92 92" fill="none" xmlns="http://www.w3.org/2000/svg">
<path d="M86.94 0H5.06C3.718 0 2.43097 0.533106 1.48204 1.48204C0.533106 2.43097 0 3.718 0 5.06V86.94C0 88.282 0.533106 89.569 1.48204 90.518C2.43097 91.4669 3.718 92 5.06 92H49.128V56.35H37.168V42.55H49.128V32.2C48.8803 29.7701 49.1671 27.3154 49.9685 25.0081C50.7699 22.7008 52.0663 20.5967 53.7669 18.8435C55.4676 17.0903 57.5312 15.7303 59.813 14.8591C62.0948 13.9878 64.5397 13.6264 66.976 13.8C70.5564 13.7753 74.1351 13.9596 77.694 14.352V26.772H70.38C64.584 26.772 63.48 29.532 63.48 33.534V42.412H77.28L75.486 56.212H63.48V92H86.94C87.6045 92 88.2625 91.8691 88.8764 91.6148C89.4903 91.3605 90.0481 90.9878 90.518 90.518C90.9878 90.0481 91.3605 89.4903 91.6148 88.8764C91.8691 88.2625 92 87.6045 92 86.94V5.06C92 4.39551 91.8691 3.73753 91.6148 3.12362C91.3605 2.50971 90.9878 1.9519 90.518 1.48204C90.0481 1.01218 89.4903 0.639459 88.8764 0.38517C88.2625 0.130881 87.6045 0 86.94 0Z" fill="#F49A13"/>
</svg>
